<?xml version="1.0" encoding="iso-8859-1"?>
<!-- Generator: Adobe Illustrator 19.0.0, SVG Export Plug-In . SVG Version: 6.00 Build 0)  -->
<svg version="1.1" id="Layer_1" xmlns="http://www.w3.org/2000/svg" xmlns:xlink="http://www.w3.org/1999/xlink" x="0px" y="0px"
	 viewBox="0 0 496 496" style="enable-background:new 0 0 496 496;" xml:space="preserve">
<path style="fill:#721E0A;" d="M200,293.784c0,4.248-4.376,7.704-8.624,7.704l-79.592,7.688c-4.256,0-7.784-3.44-7.784-7.688V195.04
	c0-4.256,3.064-7.696,7.32-7.696l80.24,7.696c4.248,0,8.44,3.448,8.44,7.696V293.784z"/>
<path style="fill:#AF360B;" d="M496,292.88c0,4.264-3.456,11.12-7.696,11.12H362.608c-4.24,0-10.608-6.848-10.608-11.12v-89.768
	c0-4.24,6.368-11.112,10.608-11.112h125.696c4.24,0,7.696,6.872,7.696,11.112V292.88z"/>
<g>
	<path style="fill:#932706;" d="M431.704,249.552c-22.096,0-55.704-1.648-79.704-4.64v47.968c0,4.264,6.368,11.12,10.608,11.12
		h125.696c4.24,0,7.696-6.848,7.696-11.12v-47.968C476.384,247.904,453.784,249.552,431.704,249.552z"/>
	<path style="fill:#932706;" d="M400,192h-37.392c-0.936,0-2.608,3.648-2.608,3.952v104.104c0,0.312,1.672,3.944,2.608,3.944H400
		V192z"/>
</g>
<path id="SVGCleanerId_0" style="fill:#75A3AF;" d="M324.68,376H172.056C143.424,376,120,352.944,120,324.296V171.68
	c0-28.632,23.424-51.68,52.056-51.68H324.68c28.648,0,51.32,23.048,51.32,51.68v152.616C376,352.944,353.328,376,324.68,376z
	 M172.056,160c-7.424,0-12.056,4.264-12.056,11.68v152.616c0,7.44,4.632,11.704,12.056,11.704H324.68
	c7.416,0,11.32-4.264,11.32-11.704V171.68c0-7.416-3.904-11.68-11.32-11.68H172.056z"/>
<g>
	<path id="SVGCleanerId_0_1_" style="fill:#75A3AF;" d="M324.68,376H172.056C143.424,376,120,352.944,120,324.296V171.68
		c0-28.632,23.424-51.68,52.056-51.68H324.68c28.648,0,51.32,23.048,51.32,51.68v152.616C376,352.944,353.328,376,324.68,376z
		 M172.056,160c-7.424,0-12.056,4.264-12.056,11.68v152.616c0,7.44,4.632,11.704,12.056,11.704H324.68
		c7.416,0,11.32-4.264,11.32-11.704V171.68c0-7.416-3.904-11.68-11.32-11.68H172.056z"/>
</g>
<path style="fill:#598D99;" d="M324.68,136H172.056C143.424,136,120,156.52,120,185.152v139.144
	C120,352.944,143.424,376,172.056,376H324.68c28.648,0,51.32-23.056,51.32-51.704V185.152C376,156.52,353.328,136,324.68,136z
	 M336,185.152v139.144v13.488c0,7.408-3.904,14.216-11.32,14.216H172.056c-7.424,0-12.056-6.808-12.056-14.216v-13.488V185.152
	V171.68c0-7.416,4.632-11.68,12.056-11.68H324.68c7.416,0,11.32,4.264,11.32,11.68V185.152z"/>
<path style="fill:#AF360B;" d="M200,292.88c0,4.264-6.72,11.12-12.664,11.12H10.816C4.832,304,0,297.152,0,292.88v-89.768
	C0,198.872,4.832,192,10.816,192h176.52c5.944,0,12.664,6.872,12.664,11.112V292.88z"/>
<path style="fill:#932706;" d="M110.8,249.552c-31,0-83.272-1.648-110.8-4.64v47.968C0,297.152,4.832,304,10.816,304h176.52
	c5.944,0,12.664-6.848,12.664-11.12v-47.968C168,247.904,141.816,249.552,110.8,249.552z"/>
<circle style="fill:#75A3AF;" cx="47.616" cy="248" r="9.136"/>
<path style="fill:#5A848E;" d="M56.752,248c0,5.048-4.096,9.144-9.144,9.144S38.48,253.048,38.48,248"/>
<circle style="fill:#D67050;" cx="138.88" cy="248" r="13.04"/>
<path style="fill:#BC5F46;" d="M151.92,248c0,7.208-5.84,13.048-13.032,13.048c-7.208,0-13.048-5.84-13.048-13.048"/>
<path style="fill:#75A3AF;" d="M330.08,247.992c0,4.232-3.408,8.008-7.624,8.008H138.744c-4.232,0-7.64-3.776-7.64-8.008l0,0
	c0-4.224,3.408-7.992,7.64-7.992h183.712C326.672,240,330.08,243.768,330.08,247.992L330.08,247.992z"/>
<path style="fill:#598D99;" d="M330.08,248.184L330.08,248.184c0,4.232-3.408,7.816-7.624,7.816H138.744
	c-4.232,0-7.64-3.496-7.64-7.728l0,0"/>
<g>
</g>
<g>
</g>
<g>
</g>
<g>
</g>
<g>
</g>
<g>
</g>
<g>
</g>
<g>
</g>
<g>
</g>
<g>
</g>
<g>
</g>
<g>
</g>
<g>
</g>
<g>
</g>
<g>
</g>
</svg>
